<svg width="203.217285" height="220.216797" viewBox="0 0 203.217 220.217" fill="none" xmlns="http://www.w3.org/2000/svg" xmlns:xlink="http://www.w3.org/1999/xlink">
	<desc>
			Created with Pixso.
	</desc>
	<defs/>
	<path id="+" d="M15.37 15.84L9.57 15.84L9.57 9.76L6.91 9.76L6.91 15.84L1.11 15.84L1.11 18.34L6.91 18.34L6.91 24.91L9.57 24.91L9.57 18.34L15.37 18.34L15.37 15.84Z" fill="#FF7152" fill-opacity="1.000000" fill-rule="evenodd"/>
	<path id="+" d="M15.37 62.39L9.57 62.39L9.57 56.32L6.91 56.32L6.91 62.39L1.11 62.39L1.11 64.89L6.91 64.89L6.91 71.46L9.57 71.46L9.57 64.89L15.37 64.89L15.37 62.39Z" fill="#E5E5E5" fill-opacity="1.000000" fill-rule="evenodd"/>
	<path id="+" d="M15.37 108.94L9.57 108.94L9.57 102.87L6.91 102.87L6.91 108.94L1.11 108.94L1.11 111.45L6.91 111.45L6.91 118.02L9.57 118.02L9.57 111.45L15.37 111.45L15.37 108.94Z" fill="#E5E5E5" fill-opacity="1.000000" fill-rule="evenodd"/>
	<path id="+" d="M61.92 15.84L56.12 15.84L56.12 9.76L53.47 9.76L53.47 15.84L47.66 15.84L47.66 18.34L53.47 18.34L53.47 24.91L56.12 24.91L56.12 18.34L61.92 18.34L61.92 15.84Z" fill="#E5E5E5" fill-opacity="1.000000" fill-rule="evenodd"/>
	<path id="+" d="M61.92 62.39L56.12 62.39L56.12 56.32L53.47 56.32L53.47 62.39L47.66 62.39L47.66 64.89L53.47 64.89L53.47 71.46L56.12 71.46L56.12 64.89L61.92 64.89L61.92 62.39Z" fill="#E5E5E5" fill-opacity="1.000000" fill-rule="evenodd"/>
	<path id="+" d="M61.92 108.94L56.12 108.94L56.12 102.87L53.47 102.87L53.47 108.94L47.66 108.94L47.66 111.45L53.47 111.45L53.47 118.02L56.12 118.02L56.12 111.45L61.92 111.45L61.92 108.94Z" fill="#E5E5E5" fill-opacity="1.000000" fill-rule="evenodd"/>
	<path id="+" d="M61.92 155.5L56.12 155.5L56.12 149.43L53.47 149.43L53.47 155.5L47.66 155.5L47.66 158L53.47 158L53.47 164.57L56.12 164.57L56.12 158L61.92 158L61.92 155.5Z" fill="#E5E5E5" fill-opacity="1.000000" fill-rule="evenodd"/>
	<path id="+" d="M108.48 15.84L102.68 15.84L102.68 9.76L100.02 9.76L100.02 15.84L94.22 15.84L94.22 18.34L100.02 18.34L100.02 24.91L102.68 24.91L102.68 18.34L108.48 18.34L108.48 15.84Z" fill="#E5E5E5" fill-opacity="1.000000" fill-rule="evenodd"/>
	<path id="+" d="M108.48 62.39L102.68 62.39L102.68 56.32L100.02 56.32L100.02 62.39L94.22 62.39L94.22 64.89L100.02 64.89L100.02 71.46L102.68 71.46L102.68 64.89L108.48 64.89L108.48 62.39Z" fill="#E5E5E5" fill-opacity="1.000000" fill-rule="evenodd"/>
	<path id="+" d="M108.48 108.94L102.68 108.94L102.68 102.87L100.02 102.87L100.02 108.94L94.22 108.94L94.22 111.45L100.02 111.45L100.02 118.02L102.68 118.02L102.68 111.45L108.48 111.45L108.48 108.94Z" fill="#6246E5" fill-opacity="1.000000" fill-rule="evenodd"/>
	<path id="+" d="M108.48 155.5L102.68 155.5L102.68 149.43L100.02 149.43L100.02 155.5L94.22 155.5L94.22 158L100.02 158L100.02 164.57L102.68 164.57L102.68 158L108.48 158L108.48 155.5Z" fill="#E5E5E5" fill-opacity="1.000000" fill-rule="evenodd"/>
	<path id="+" d="M108.48 202.05L102.68 202.05L102.68 195.98L100.02 195.98L100.02 202.05L94.22 202.05L94.22 204.55L100.02 204.55L100.02 211.13L102.68 211.13L102.68 204.55L108.48 204.55L108.48 202.05Z" fill="#E5E5E5" fill-opacity="1.000000" fill-rule="evenodd"/>
	<path id="+" d="M155.03 15.84L149.23 15.84L149.23 9.76L146.57 9.76L146.57 15.84L140.77 15.84L140.77 18.34L146.57 18.34L146.57 24.91L149.23 24.91L149.23 18.34L155.03 18.34L155.03 15.84Z" fill="#E5E5E5" fill-opacity="1.000000" fill-rule="evenodd"/>
	<path id="+" d="M155.03 62.39L149.23 62.39L149.23 56.32L146.57 56.32L146.57 62.39L140.77 62.39L140.77 64.89L146.57 64.89L146.57 71.46L149.23 71.46L149.23 64.89L155.03 64.89L155.03 62.39Z" fill="#E5E5E5" fill-opacity="1.000000" fill-rule="evenodd"/>
	<path id="+" d="M155.03 108.94L149.23 108.94L149.23 102.87L146.57 102.87L146.57 108.94L140.77 108.94L140.77 111.45L146.57 111.45L146.57 118.02L149.23 118.02L149.23 111.45L155.03 111.45L155.03 108.94Z" fill="#E5E5E5" fill-opacity="1.000000" fill-rule="evenodd"/>
	<path id="+" d="M155.03 155.5L149.23 155.5L149.23 149.43L146.57 149.43L146.57 155.5L140.77 155.5L140.77 158L146.57 158L146.57 164.57L149.23 164.57L149.23 158L155.03 158L155.03 155.5Z" fill="#E5E5E5" fill-opacity="1.000000" fill-rule="evenodd"/>
	<path id="+" d="M155.03 202.05L149.23 202.05L149.23 195.98L146.57 195.98L146.57 202.05L140.77 202.05L140.77 204.55L146.57 204.55L146.57 211.13L149.23 211.13L149.23 204.55L155.03 204.55L155.03 202.05Z" fill="#E5E5E5" fill-opacity="1.000000" fill-rule="evenodd"/>
	<path id="+" d="M201.59 15.84L195.79 15.84L195.79 9.76L193.13 9.76L193.13 15.84L187.33 15.84L187.33 18.34L193.13 18.34L193.13 24.91L195.79 24.91L195.79 18.34L201.59 18.34L201.59 15.84Z" fill="#E5E5E5" fill-opacity="1.000000" fill-rule="evenodd"/>
	<path id="+" d="M201.59 62.39L195.79 62.39L195.79 56.32L193.13 56.32L193.13 62.39L187.33 62.39L187.33 64.89L193.13 64.89L193.13 71.46L195.79 71.46L195.79 64.89L201.59 64.89L201.59 62.39Z" fill="#E5E5E5" fill-opacity="1.000000" fill-rule="evenodd"/>
	<path id="+" d="M201.59 108.94L195.79 108.94L195.79 102.87L193.13 102.87L193.13 108.94L187.33 108.94L187.33 111.45L193.13 111.45L193.13 118.02L195.79 118.02L195.79 111.45L201.59 111.45L201.59 108.94Z" fill="#E5E5E5" fill-opacity="1.000000" fill-rule="evenodd"/>
	<path id="+" d="M201.59 155.5L195.79 155.5L195.79 149.43L193.13 149.43L193.13 155.5L187.33 155.5L187.33 158L193.13 158L193.13 164.57L195.79 164.57L195.79 158L201.59 158L201.59 155.5Z" fill="#E5E5E5" fill-opacity="1.000000" fill-rule="evenodd"/>
	<path id="+" d="M201.59 202.05L195.79 202.05L195.79 195.98L193.13 195.98L193.13 202.05L187.33 202.05L187.33 204.55L193.13 204.55L193.13 211.13L195.79 211.13L195.79 204.55L201.59 204.55L201.59 202.05Z" fill="#E5E5E5" fill-opacity="1.000000" fill-rule="evenodd"/>
</svg>
