<svg width="129.186035" height="336.604492" viewBox="0 0 129.186 336.604" fill="none" xmlns="http://www.w3.org/2000/svg" xmlns:xlink="http://www.w3.org/1999/xlink">
	<desc>
			Created with Pixso.
	</desc>
	<defs/>
	<path id="Decore" d="M11.28 18.31C20.63 6.98 44.26 -10.43 64.02 10.52C83.78 31.48 57.12 70.7 41.32 87.69C33.53 92.41 17.29 100.44 14.62 94.77C11.28 87.69 9.28 72.83 36.65 60.08C54.23 52.53 92.2 44.51 103.41 72.83C108.53 85.1 109.42 113.61 72.03 129.47L25.3 150M38.65 237.08C52.01 247.84 80.71 249.59 93.4 249.12C127.58 243.45 125.89 215.13 120.77 201.68C111.16 178.46 62.02 168.41 38.65 166.28L37.32 116.02C43.73 113.75 69.36 112.24 81.38 111.77C131.05 114.6 130.56 148.35 124.11 164.87C110.76 188.09 61.57 189.65 38.65 187.52L38.65 213.72C44.88 216.79 65.22 222.21 96.73 219.38C128.25 216.55 130.34 187.52 127.45 173.36C110.76 145.75 102.41 150 81.38 145.04C64.55 141.08 36.98 146.69 25.3 150C7.5 150.71 -18.09 142.22 21.96 102.56C34.65 96.43 65.36 84.01 86.72 83.45C98.96 86.04 122.51 98.88 118.77 129.47C119.21 135.6 110.89 150.85 74.04 162.74C65.58 164.63 46.66 168.55 38.65 169.11L9.95 173.36L25.3 150M38.65 237.08C54.68 248.41 87.39 275.88 90.06 295.14C91.17 306.94 88.19 331.53 67.36 335.49C62.02 336.44 48.8 336.34 38.65 328.41L41.32 264.69L38.65 237.08L38.65 187.52M38.65 187.52C53.12 191.06 84.99 200.83 96.73 211.59C110.98 223.39 131.85 252.66 101.41 275.31C91.84 278.85 66.43 281.68 41.32 264.69" stroke="#84829A" stroke-opacity="1.000000" stroke-width="1.330121"/>
</svg>
