<svg width="26.602417" height="26.602539" viewBox="0 0 26.6024 26.6025" fill="none" xmlns="http://www.w3.org/2000/svg" xmlns:xlink="http://www.w3.org/1999/xlink">
	<desc>
			Created with Pixso.
	</desc>
	<defs>
		<clipPath id="clip302_2170">
			<rect id="navigation 1" rx="0.000000" width="25.272310" height="25.272310" transform="translate(0.665061 0.665061)" fill="white" fill-opacity="0"/>
		</clipPath>
	</defs>
	<rect id="navigation 1" rx="0.000000" width="25.272310" height="25.272310" transform="translate(0.665061 0.665061)" fill="#FFFFFF" fill-opacity="0"/>
	<g clip-path="url(#clip302_2170)">
		<path id="Vector" d="M24.03 3.67L14.88 23.62C14.81 23.79 14.68 23.92 14.51 24.01C14.35 24.09 14.17 24.12 13.98 24.09C13.8 24.06 13.64 23.97 13.51 23.83C13.39 23.7 13.31 23.53 13.3 23.34L12.53 14.07L3.25 13.29C3.07 13.28 2.89 13.2 2.76 13.08C2.62 12.96 2.53 12.79 2.5 12.61C2.47 12.43 2.5 12.24 2.58 12.08C2.67 11.92 2.81 11.79 2.97 11.71L22.93 2.56C23.08 2.49 23.25 2.47 23.42 2.5C23.59 2.53 23.74 2.61 23.86 2.73C23.98 2.85 24.06 3.01 24.09 3.17C24.12 3.34 24.1 3.51 24.03 3.67L24.03 3.67Z" fill="#080809" fill-opacity="1.000000" fill-rule="nonzero"/>
	</g>
</svg>
