<svg width="62.515747" height="63.845703" viewBox="0 0 62.5157 63.8457" fill="none" xmlns="http://www.w3.org/2000/svg" xmlns:xlink="http://www.w3.org/1999/xlink">
	<desc>
			Created with Pixso.
	</desc>
	<defs/>
	<rect id="Rectangle 21" rx="17.291582" width="62.515724" height="63.845840" fill="#F0BB1F" fill-opacity="1.000000"/>
	<path id="Vector" d="M18.01 23.24C17.62 23.24 17.29 22.92 17.29 22.52L17.29 18.01C17.29 17.61 17.61 17.29 18.01 17.29L22.52 17.29C22.92 17.29 23.24 17.61 23.24 18.01L23.24 19.58L40.6 19.58L40.6 18.01C40.6 17.62 40.92 17.29 41.31 17.29L45.83 17.29C46.22 17.29 46.54 17.61 46.55 18.01L46.55 22.52C46.55 22.92 46.23 23.24 45.83 23.24L44.25 23.24L44.25 40.6L45.83 40.6C46.22 40.6 46.54 40.92 46.55 41.31L46.55 45.83C46.55 46.22 46.23 46.54 45.83 46.55L41.31 46.55C40.92 46.55 40.6 46.23 40.6 45.83L40.6 44.25L23.24 44.25L23.24 45.83C23.24 46.22 22.92 46.54 22.52 46.55L18.01 46.55C17.62 46.55 17.29 46.23 17.29 45.83L17.29 41.31C17.29 40.92 17.61 40.6 18.01 40.6L19.58 40.6L19.58 23.24L18.01 23.24ZM45.11 21.81L45.11 18.72L42.03 18.72L42.03 21.81L45.11 21.81ZM42.03 45.12L45.11 45.12L45.11 42.03L42.03 42.03L42.03 45.12ZM23.24 41.31L23.24 42.82L40.6 42.82L40.6 41.31C40.6 40.92 40.92 40.6 41.31 40.6L42.82 40.6L42.82 23.24L41.31 23.24C40.92 23.24 40.6 22.92 40.6 22.52L40.6 21.02L23.24 21.02L23.24 22.52C23.24 22.92 22.92 23.24 22.52 23.24L21.02 23.24L21.02 40.6L22.52 40.6C22.92 40.6 23.24 40.92 23.24 41.31ZM18.72 42.03L18.72 45.12L21.81 45.12L21.81 42.03L18.72 42.03ZM21.81 21.81L21.81 18.72L18.72 18.72L18.72 21.81L21.81 21.81Z" fill="#FFFFFF" fill-opacity="1.000000" fill-rule="nonzero"/>
</svg>
