<svg width="62.515747" height="63.845703" viewBox="0 0 62.5157 63.8457" fill="none" xmlns="http://www.w3.org/2000/svg" xmlns:xlink="http://www.w3.org/1999/xlink">
	<desc>
			Created with Pixso.
	</desc>
	<defs/>
	<rect id="Rectangle 22" rx="17.291582" width="62.515724" height="63.845840" fill="#006380" fill-opacity="1.000000"/>
	<path id="Vector" d="M21.94 34.75C21.55 34.75 21.16 34.86 20.83 35.08C20.51 35.3 20.25 35.61 20.1 35.98C19.95 36.34 19.91 36.74 19.99 37.13C20.06 37.52 20.25 37.87 20.53 38.15C20.81 38.43 21.17 38.62 21.55 38.7C21.94 38.78 22.34 38.74 22.71 38.58C23.07 38.43 23.38 38.18 23.6 37.85C23.82 37.52 23.94 37.14 23.94 36.74C23.94 36.21 23.73 35.71 23.35 35.33C22.98 34.96 22.47 34.75 21.94 34.75ZM21.94 37.74C21.74 37.74 21.55 37.68 21.39 37.57C21.22 37.46 21.1 37.31 21.02 37.12C20.94 36.94 20.92 36.74 20.96 36.55C21 36.35 21.1 36.18 21.24 36.04C21.38 35.9 21.55 35.8 21.75 35.76C21.94 35.72 22.14 35.74 22.32 35.82C22.51 35.9 22.66 36.02 22.77 36.19C22.88 36.35 22.94 36.54 22.94 36.74C22.94 37.01 22.83 37.26 22.65 37.45C22.46 37.63 22.21 37.74 21.94 37.74Z" fill="#FFFFFF" fill-opacity="1.000000" fill-rule="nonzero"/>
	<path id="Vector" d="M41.89 34.75C41.5 34.75 41.11 34.86 40.79 35.08C40.46 35.3 40.2 35.61 40.05 35.98C39.9 36.34 39.86 36.74 39.94 37.13C40.01 37.52 40.2 37.87 40.48 38.15C40.76 38.43 41.12 38.62 41.5 38.7C41.89 38.78 42.29 38.74 42.66 38.58C43.02 38.43 43.33 38.18 43.55 37.85C43.77 37.52 43.89 37.14 43.89 36.74C43.89 36.21 43.68 35.71 43.3 35.33C42.93 34.96 42.42 34.75 41.89 34.75ZM41.89 37.74C41.7 37.74 41.5 37.68 41.34 37.57C41.18 37.46 41.05 37.31 40.97 37.12C40.9 36.94 40.88 36.74 40.92 36.55C40.95 36.35 41.05 36.18 41.19 36.04C41.33 35.9 41.51 35.8 41.7 35.76C41.89 35.72 42.09 35.74 42.28 35.82C42.46 35.9 42.61 36.02 42.72 36.19C42.83 36.35 42.89 36.54 42.89 36.74C42.89 37.01 42.79 37.26 42.6 37.45C42.41 37.63 42.16 37.74 41.89 37.74Z" fill="#FFFFFF" fill-opacity="1.000000" fill-rule="nonzero"/>
	<path id="Vector" d="M27.43 37.24L36.41 37.24L36.41 38.24L27.43 38.24L27.43 37.24Z" fill="#FFFFFF" fill-opacity="1.000000" fill-rule="nonzero"/>
	<path id="Vector" d="M27.43 35.25L36.41 35.25L36.41 36.24L27.43 36.24L27.43 35.25Z" fill="#FFFFFF" fill-opacity="1.000000" fill-rule="nonzero"/>
	<path id="Vector" d="M30.42 27.76L33.41 27.76L33.41 28.76L30.42 28.76L30.42 27.76Z" fill="#FFFFFF" fill-opacity="1.000000" fill-rule="nonzero"/>
	<path id="Vector" d="M46.88 32.25L46.88 31.25C46.88 30.86 46.72 30.48 46.44 30.2C46.16 29.92 45.78 29.76 45.39 29.76L43.41 29.76L42.38 26.14L42.07 24.9C41.99 24.58 41.8 24.29 41.54 24.09C41.27 23.88 40.95 23.77 40.62 23.77L36.41 23.77L36.41 21.78C36.41 21.51 36.3 21.26 36.11 21.07C35.93 20.89 35.67 20.78 35.41 20.78L28.43 20.78C28.16 20.78 27.91 20.89 27.72 21.07C27.53 21.26 27.43 21.51 27.43 21.78L27.43 23.77L23.22 23.77C22.89 23.77 22.56 23.88 22.3 24.09C22.04 24.29 21.85 24.58 21.77 24.9L21.46 26.13L20.43 29.76L18.45 29.76C18.05 29.76 17.67 29.92 17.39 30.2C17.11 30.48 16.96 30.86 16.95 31.25L16.95 32.25C16.95 32.5 17.02 32.75 17.14 32.97C17.27 33.19 17.44 33.38 17.66 33.51C17.21 33.98 16.95 34.6 16.95 35.24L16.95 41.23C16.95 41.44 17 41.65 17.09 41.84C17.17 42.03 17.3 42.2 17.45 42.34L17.45 44.22C17.45 44.62 17.61 45 17.89 45.28C18.17 45.56 18.55 45.72 18.95 45.72L22.94 45.72C23.34 45.72 23.72 45.56 24 45.28C24.28 45 24.43 44.62 24.44 44.22L24.44 42.73L39.4 42.73L39.4 44.22C39.4 44.62 39.56 45 39.84 45.28C40.12 45.56 40.5 45.72 40.9 45.72L44.89 45.72C45.28 45.72 45.66 45.56 45.94 45.28C46.22 45 46.38 44.62 46.38 44.22L46.38 42.34C46.54 42.2 46.66 42.03 46.75 41.84C46.84 41.65 46.88 41.44 46.88 41.23L46.88 35.24C46.88 34.6 46.63 33.98 46.18 33.51C46.39 33.38 46.57 33.19 46.69 32.97C46.82 32.75 46.88 32.5 46.88 32.25ZM28.43 21.78L35.41 21.78L35.41 23.77L28.43 23.77L28.43 21.78ZM22.74 25.15C22.76 25.04 22.82 24.94 22.91 24.88C23 24.81 23.11 24.77 23.22 24.77L40.62 24.77C40.73 24.77 40.84 24.81 40.92 24.88C41.01 24.94 41.07 25.04 41.1 25.15L41.26 25.77L22.58 25.77L22.74 25.15ZM22.32 26.76L41.52 26.76L43.23 32.75L28.88 32.75C28.76 32.05 28.4 31.42 27.86 30.96C27.32 30.51 26.64 30.26 25.93 30.26C25.23 30.26 24.54 30.51 24 30.96C23.46 31.42 23.1 32.05 22.98 32.75L20.61 32.75L22.32 26.76ZM27.86 32.75L24.01 32.75C24.12 32.32 24.36 31.94 24.71 31.67C25.06 31.4 25.49 31.25 25.93 31.25C26.37 31.25 26.8 31.4 27.15 31.67C27.5 31.94 27.75 32.32 27.86 32.75ZM17.95 31.25C17.95 31.12 18 31 18.1 30.9C18.19 30.81 18.32 30.75 18.45 30.75L20.14 30.75L19.57 32.75L18.45 32.75C18.32 32.75 18.19 32.7 18.1 32.6C18 32.51 17.95 32.38 17.95 32.25L17.95 31.25ZM23.44 44.22C23.44 44.35 23.39 44.48 23.29 44.58C23.2 44.67 23.07 44.72 22.94 44.72L18.95 44.72C18.82 44.72 18.69 44.67 18.6 44.58C18.5 44.48 18.45 44.35 18.45 44.22L18.45 42.73L23.44 42.73L23.44 44.22ZM45.39 44.22C45.39 44.35 45.33 44.48 45.24 44.58C45.15 44.67 45.02 44.72 44.89 44.72L40.9 44.72C40.76 44.72 40.64 44.67 40.54 44.58C40.45 44.48 40.4 44.35 40.4 44.22L40.4 42.73L45.39 42.73L45.39 44.22ZM45.88 41.23C45.88 41.36 45.83 41.49 45.74 41.58C45.64 41.68 45.52 41.73 45.39 41.73L18.45 41.73C18.32 41.73 18.19 41.68 18.1 41.58C18 41.49 17.95 41.36 17.95 41.23L17.95 40.73L45.88 40.73L45.88 41.23ZM45.88 39.73L17.95 39.73L17.95 35.24C17.95 34.85 18.11 34.47 18.39 34.19C18.67 33.91 19.05 33.75 19.45 33.75L44.39 33.75C44.78 33.75 45.16 33.91 45.44 34.19C45.72 34.47 45.88 34.85 45.88 35.24L45.88 39.73ZM45.88 32.25C45.88 32.38 45.83 32.51 45.74 32.6C45.64 32.7 45.52 32.75 45.39 32.75L44.26 32.75L43.69 30.75L45.39 30.75C45.52 30.75 45.64 30.81 45.74 30.9C45.83 31 45.88 31.12 45.88 31.25L45.88 32.25Z" fill="#FFFFFF" fill-opacity="1.000000" fill-rule="nonzero"/>
</svg>
