<svg width="62.515747" height="63.845703" viewBox="0 0 62.5157 63.8457" fill="none" xmlns="http://www.w3.org/2000/svg" xmlns:xlink="http://www.w3.org/1999/xlink">
	<desc>
			Created with Pixso.
	</desc>
	<defs/>
	<rect id="Rectangle 21" rx="17.291582" width="62.515724" height="63.845840" fill="#F15A2B" fill-opacity="1.000000"/>
	<path id="Vector" d="M43.65 42.46C43.05 42.48 42.46 42.3 41.96 41.97C41.59 41.73 41.16 41.6 40.71 41.6C40.27 41.6 39.84 41.73 39.47 41.97C38.96 42.29 38.38 42.46 37.78 42.46C37.18 42.46 36.6 42.29 36.1 41.97C35.72 41.73 35.29 41.6 34.85 41.6C34.4 41.6 33.97 41.73 33.6 41.97C33.1 42.29 32.51 42.46 31.91 42.46C31.32 42.46 30.73 42.29 30.23 41.97C29.86 41.73 29.42 41.6 28.98 41.6C28.54 41.6 28.1 41.73 27.73 41.97C27.28 42.28 26.74 42.44 26.2 42.46L26.17 41.6C26.57 41.59 26.96 41.46 27.3 41.23C27.8 40.91 28.38 40.74 28.98 40.74C29.58 40.74 30.16 40.91 30.67 41.23C31.04 41.47 31.47 41.6 31.91 41.6C32.36 41.6 32.79 41.47 33.16 41.23C33.67 40.91 34.25 40.74 34.85 40.74C35.45 40.74 36.03 40.91 36.53 41.23C36.9 41.47 37.34 41.6 37.78 41.6C38.23 41.6 38.66 41.47 39.03 41.23C39.53 40.91 40.12 40.74 40.72 40.74C41.31 40.74 41.9 40.91 42.4 41.23C42.77 41.47 43.21 41.6 43.65 41.6C44.1 41.6 44.53 41.47 44.9 41.23C45.4 40.9 45.99 40.73 46.59 40.74L46.59 41.6C46.14 41.59 45.7 41.72 45.34 41.97C44.84 42.3 44.25 42.48 43.65 42.46Z" fill="#FFFFFF" fill-opacity="1.000000" fill-rule="nonzero"/>
	<path id="Vector" d="M20.18 42.46C19.59 42.47 19 42.3 18.5 41.97C18.13 41.72 17.7 41.59 17.25 41.6L17.25 40.74C17.85 40.72 18.44 40.9 18.94 41.23C19.3 41.48 19.74 41.61 20.18 41.6C20.63 41.61 21.07 41.48 21.43 41.23C21.93 40.9 22.52 40.72 23.12 40.74C23.7 40.72 24.27 40.89 24.76 41.21L24.33 41.95C23.97 41.71 23.55 41.59 23.12 41.6C22.67 41.59 22.24 41.72 21.87 41.97C21.37 42.3 20.78 42.48 20.18 42.46Z" fill="#FFFFFF" fill-opacity="1.000000" fill-rule="nonzero"/>
	<path id="Vector" d="M43.65 39.44C43.05 39.46 42.46 39.29 41.96 38.95C41.59 38.71 41.16 38.58 40.71 38.58C40.27 38.58 39.84 38.71 39.46 38.95C38.96 39.27 38.38 39.44 37.78 39.44C37.18 39.44 36.6 39.27 36.09 38.95C35.72 38.71 35.29 38.58 34.85 38.58C34.4 38.58 33.97 38.71 33.6 38.95C33.1 39.27 32.51 39.44 31.91 39.44C31.32 39.44 30.73 39.27 30.23 38.95C29.86 38.71 29.42 38.58 28.98 38.58C28.54 38.58 28.1 38.71 27.73 38.95C27.24 39.29 26.65 39.46 26.05 39.44C25.45 39.46 24.86 39.29 24.36 38.95C24 38.7 23.56 38.57 23.12 38.58C22.67 38.57 22.23 38.7 21.87 38.95C21.37 39.29 20.78 39.46 20.19 39.44C19.59 39.46 19 39.29 18.5 38.95C18.13 38.7 17.7 38.57 17.25 38.58L17.25 37.72C17.85 37.71 18.44 37.88 18.94 38.21C19.3 38.46 19.74 38.59 20.18 38.58C20.63 38.59 21.07 38.46 21.43 38.21C21.93 37.88 22.52 37.71 23.11 37.72C23.71 37.71 24.3 37.88 24.8 38.21C25.17 38.46 25.6 38.59 26.05 38.58C26.49 38.59 26.93 38.46 27.3 38.21C27.8 37.89 28.38 37.72 28.98 37.72C29.58 37.72 30.16 37.89 30.67 38.21C31.04 38.45 31.47 38.58 31.91 38.58C32.36 38.58 32.79 38.45 33.16 38.21C33.67 37.89 34.25 37.72 34.85 37.72C35.44 37.72 36.03 37.89 36.53 38.21C36.9 38.45 37.34 38.58 37.78 38.58C38.22 38.58 38.66 38.45 39.03 38.21C39.53 37.89 40.12 37.72 40.71 37.72C41.31 37.72 41.9 37.89 42.4 38.21C42.77 38.45 43.21 38.58 43.65 38.58C44.09 38.58 44.53 38.45 44.9 38.21C45.4 37.88 45.99 37.71 46.59 37.72L46.59 38.58C46.14 38.57 45.7 38.7 45.33 38.95C44.84 39.29 44.25 39.46 43.65 39.44Z" fill="#FFFFFF" fill-opacity="1.000000" fill-rule="nonzero"/>
	<path id="Vector" d="M43.65 36.42C43.05 36.44 42.46 36.27 41.96 35.93C41.6 35.68 41.16 35.55 40.71 35.56C40.39 35.55 40.06 35.62 39.77 35.76L39.39 34.99C39.8 34.79 40.26 34.69 40.71 34.7C41.31 34.69 41.9 34.86 42.4 35.19C42.77 35.43 43.21 35.56 43.65 35.56C44.1 35.56 44.53 35.43 44.9 35.19C45.4 34.86 45.99 34.69 46.59 34.7L46.59 35.56C46.14 35.55 45.7 35.68 45.34 35.93C44.84 36.27 44.25 36.44 43.65 36.42Z" fill="#FFFFFF" fill-opacity="1.000000" fill-rule="nonzero"/>
	<path id="Vector" d="M37.78 36.42C37.18 36.44 36.59 36.26 36.09 35.93C35.72 35.69 35.29 35.56 34.85 35.56C34.4 35.56 33.97 35.69 33.6 35.93C33.09 36.25 32.51 36.42 31.91 36.42C31.32 36.42 30.73 36.25 30.23 35.93C29.86 35.69 29.42 35.56 28.98 35.56C28.54 35.56 28.1 35.69 27.73 35.93C27.23 36.26 26.65 36.44 26.05 36.42C25.45 36.44 24.86 36.26 24.36 35.93C24 35.68 23.56 35.55 23.11 35.56C22.67 35.55 22.23 35.68 21.87 35.93C21.37 36.26 20.78 36.44 20.18 36.42C19.59 36.44 19 36.26 18.5 35.93C18.13 35.68 17.7 35.55 17.25 35.56L17.25 34.7C17.85 34.69 18.44 34.86 18.94 35.19C19.3 35.44 19.74 35.57 20.18 35.56C20.63 35.57 21.07 35.44 21.43 35.19C21.93 34.86 22.52 34.69 23.12 34.7C23.71 34.69 24.3 34.86 24.8 35.19C25.17 35.44 25.6 35.57 26.05 35.56C26.49 35.57 26.93 35.44 27.3 35.19C27.8 34.87 28.38 34.7 28.98 34.7C29.58 34.7 30.16 34.87 30.67 35.19C31.04 35.43 31.47 35.56 31.91 35.56C32.36 35.56 32.79 35.43 33.16 35.19C33.67 34.87 34.25 34.7 34.85 34.7C35.45 34.7 36.03 34.87 36.53 35.19C36.91 35.44 37.37 35.57 37.82 35.56C37.86 35.56 37.89 35.56 37.92 35.55L38.04 36.41C37.95 36.42 37.86 36.42 37.78 36.42Z" fill="#FFFFFF" fill-opacity="1.000000" fill-rule="nonzero"/>
	<path id="Vector" d="M43.65 33.4C43.05 33.42 42.46 33.25 41.96 32.91C41.59 32.67 41.16 32.54 40.71 32.54C40.27 32.54 39.84 32.67 39.46 32.91C38.96 33.23 38.38 33.4 37.78 33.4C37.18 33.4 36.6 33.23 36.09 32.91C35.72 32.67 35.29 32.54 34.85 32.54C34.4 32.54 33.97 32.67 33.6 32.91C33.1 33.23 32.51 33.4 31.91 33.4C31.32 33.4 30.73 33.23 30.23 32.91C29.86 32.67 29.42 32.54 28.98 32.54C28.54 32.54 28.1 32.67 27.73 32.91C27.24 33.25 26.65 33.42 26.05 33.4C25.45 33.42 24.86 33.25 24.36 32.91C24 32.66 23.56 32.53 23.12 32.54C22.67 32.53 22.23 32.66 21.87 32.91C21.37 33.25 20.78 33.42 20.19 33.4C19.59 33.42 19 33.25 18.5 32.91C18.13 32.66 17.7 32.53 17.25 32.54L17.25 31.68C17.85 31.67 18.44 31.84 18.94 32.17C19.3 32.42 19.74 32.55 20.18 32.54C20.63 32.55 21.07 32.42 21.43 32.17C21.93 31.84 22.52 31.67 23.11 31.68C23.71 31.67 24.3 31.84 24.8 32.17C25.17 32.42 25.6 32.55 26.05 32.54C26.49 32.55 26.93 32.42 27.3 32.17C27.8 31.85 28.38 31.68 28.98 31.68C29.58 31.68 30.16 31.85 30.67 32.17C31.04 32.41 31.47 32.54 31.91 32.54C32.36 32.54 32.79 32.41 33.16 32.17C33.67 31.85 34.25 31.68 34.85 31.68C35.44 31.68 36.03 31.85 36.53 32.17C36.9 32.41 37.34 32.54 37.78 32.54C38.22 32.54 38.66 32.41 39.03 32.17C39.53 31.85 40.12 31.68 40.71 31.68C41.31 31.68 41.9 31.85 42.4 32.17C42.77 32.41 43.21 32.54 43.65 32.54C44.09 32.54 44.53 32.41 44.9 32.17C45.4 31.84 45.99 31.67 46.59 31.68L46.59 32.54C46.14 32.53 45.7 32.66 45.33 32.91C44.84 33.25 44.25 33.42 43.65 33.4Z" fill="#FFFFFF" fill-opacity="1.000000" fill-rule="nonzero"/>
	<path id="Vector" d="M37.5 33.04L36.69 32.75C36.9 32.15 36.98 31.51 36.94 30.87C36.9 30.24 36.72 29.62 36.43 29.05L33.47 23.25C33.44 23.19 33.43 23.13 33.42 23.06C33.42 23 33.43 22.93 33.46 22.87C33.49 22.82 33.53 22.76 33.58 22.72C33.62 22.68 33.68 22.65 33.74 22.63L39.65 21.06C39.84 21.01 40.01 20.88 40.11 20.71C40.21 20.54 40.24 20.34 40.19 20.14C40.14 19.95 40.02 19.79 39.85 19.68C39.68 19.58 39.47 19.55 39.28 19.6L32.13 21.3C31.98 21.34 31.84 21.41 31.72 21.51C31.6 21.61 31.5 21.74 31.44 21.88C31.37 22.02 31.34 22.18 31.35 22.34C31.35 22.49 31.39 22.65 31.47 22.79L33.59 26.73C33.65 26.83 33.66 26.95 33.62 27.05C33.59 27.16 33.52 27.26 33.42 27.31L30.68 28.82L30.26 28.06L32.63 26.76L30.71 23.19C30.57 22.94 30.5 22.66 30.49 22.37C30.48 22.08 30.53 21.79 30.65 21.53C30.77 21.26 30.95 21.03 31.17 20.85C31.39 20.66 31.65 20.53 31.94 20.46L39.08 18.76C39.5 18.65 39.94 18.72 40.3 18.94C40.67 19.16 40.94 19.51 41.04 19.93C41.15 20.34 41.08 20.79 40.86 21.15C40.64 21.52 40.29 21.79 39.87 21.89L34.48 23.33L37.2 28.66C37.55 29.33 37.75 30.06 37.8 30.82C37.85 31.57 37.75 32.32 37.5 33.04Z" fill="#FFFFFF" fill-opacity="1.000000" fill-rule="nonzero"/>
	<path id="Vector" d="M23.51 31.79L28.76 28.9L29.17 29.66L23.93 32.55L23.51 31.79Z" fill="#FFFFFF" fill-opacity="1.000000" fill-rule="evenodd"/>
	<path id="Vector" d="M41.41 30.17C40.77 30.17 40.14 29.98 39.61 29.62C39.08 29.27 38.66 28.76 38.42 28.17C38.17 27.58 38.11 26.93 38.24 26.3C38.36 25.67 38.67 25.1 39.12 24.65C39.57 24.19 40.15 23.88 40.78 23.76C41.41 23.64 42.06 23.7 42.65 23.94C43.24 24.19 43.74 24.6 44.1 25.14C44.45 25.67 44.64 26.29 44.64 26.93C44.64 27.79 44.3 28.61 43.7 29.22C43.09 29.83 42.27 30.17 41.41 30.17ZM41.41 24.56C40.94 24.56 40.48 24.7 40.09 24.96C39.7 25.22 39.4 25.59 39.22 26.03C39.04 26.46 38.99 26.94 39.08 27.4C39.17 27.86 39.4 28.28 39.73 28.61C40.06 28.94 40.49 29.17 40.95 29.26C41.41 29.35 41.88 29.31 42.32 29.13C42.75 28.95 43.12 28.64 43.38 28.25C43.64 27.86 43.78 27.4 43.78 26.93C43.78 26.3 43.53 25.7 43.09 25.26C42.64 24.81 42.04 24.56 41.41 24.56Z" fill="#FFFFFF" fill-opacity="1.000000" fill-rule="nonzero"/>
</svg>
